# File created by Blade
# Date/Time:  Tue Jan 27 17:01:45 2015
#---------------------------------------------------------
:version 1.10
:name HOM
:units
  mass 1.0
  length 1.000000
  angle deg
:documentation
     Acclaim Skeleton File
:root
   axis xyz
   order TX TY TZ RX RY RZ
   position 0.000000 0.000000 0.000000
   orientation 0 0 0
:bonedata
   begin
      id 1
      name Spine_dum
      direction 0.000000 1.000000 0.000000
      length 7.539951
      axis 0.0 0.0 0.0 xyz
   end
   begin
      id 2
      name LeftUpLeg_dum
      direction 1.000000 0.000000 0.000000
      length 3.345476
      axis 0.0 0.0 0.0 xyz
   end
   begin
      id 3
      name RightUpLeg_dum
      direction -1.000000 0.000000 0.000000
      length 3.345476
      axis 0.0 0.0 0.0 xyz
   end
   begin
      id 4
      name Spine
      direction 0.000000 1.000000 0.000000
      length 0.000000
      axis 0.0 0.0 0.0 xyz
      dof rx ry rz
   end
   begin
      id 5
      name Spine_dum1
      direction 0.000000 1.000000 0.000000
      length 15.093809
      axis 0.0 0.0 0.0 xyz
   end
   begin
      id 6
      name Spine_dum2
      direction 0.000000 1.000000 0.000000
      length 9.738928
      axis 0.0 0.0 0.0 xyz
   end
   begin
      id 7
      name Spine_dum3
      direction 0.000000 1.000000 0.000000
      length 9.738928
      axis 0.0 0.0 0.0 xyz
   end
   begin
      id 8
      name Head
      direction 0.000000 1.000000 0.000000
      length 4.527550
      axis 0.0 0.0 0.0 xyz
      dof rx ry rz
   end
   begin
      id 9
      name LeftShoulder
      direction 1.000000 0.000000 0.000000
      length 7.084015
      axis 0.0 0.0 -90.0 xyz
      dof rx ry rz
   end
   begin
      id 10
      name LeftArm
      direction 1.000000 0.000000 0.000000
      length 10.259319
      axis 0.0 0.0 -90.0 xyz
      dof rx ry rz
   end
   begin
      id 11
      name LeftForeArm
      direction 1.000000 0.000000 0.000000
      length 9.896984
      axis 0.0 0.0 -90.0 xyz
      dof ry rz rx
   end
   begin
      id 12
      name LeftHand
      direction 0.000000 0.000000 0.000000
      length 0.000000
      axis 0.0 0.0 -90.0 xyz
      dof rx ry rz
   end
   begin
      id 13
      name LeftHand_dum1
      direction 0.000000 0.000000 0.000000
      length 0.000000
      axis 0.0 0.0 -90.0 xyz
   end
   begin
      id 14
      name LeftHand_dum2
      direction 1.000000 0.000000 0.000000
      length 3.937000
      axis 0.0 0.0 -90.0 xyz
   end
   begin
      id 15
      name LeftHandThumb1
      direction 0.000000 0.000000 1.000000
      length 3.937000
      axis 0.0 0.0 -90.0 xyz
      dof rx rz ry
   end
   begin
      id 16
      name RightShoulder
      direction -1.000000 0.000000 0.000000
      length 7.084015
      axis 0.0 0.0 90.0 xyz
      dof rx ry rz
   end
   begin
      id 17
      name RightArm
      direction -1.000000 0.000000 0.000000
      length 10.259319
      axis 0.0 0.0 90.0 xyz
      dof rx ry rz
   end
   begin
      id 18
      name RightForeArm
      direction -1.000000 0.000000 0.000000
      length 9.896984
      axis 0.0 0.0 90.0 xyz
      dof ry rz rx
   end
   begin
      id 19
      name RightHand
      direction 0.000000 0.000000 0.000000
      length 0.000000
      axis 0.0 0.0 90.0 xyz
      dof rx ry rz
   end
   begin
      id 20
      name RightHand_dum1
      direction 0.000000 0.000000 0.000000
      length 0.000000
      axis 0.0 0.0 90.0 xyz
   end
   begin
      id 21
      name RightHand_dum2
      direction -1.000000 0.000000 0.000000
      length 3.937000
      axis 0.0 0.0 90.0 xyz
   end
   begin
      id 22
      name RightHandThumb1
      direction 0.000000 0.000000 1.000000
      length 3.937000
      axis 0.0 0.0 90.0 xyz
      dof rx rz ry
   end
   begin
      id 23
      name LeftUpLeg
      direction 0.000000 -1.000000 0.000000
      length 19.114733
      axis 0.0 0.0 0.0 xyz
      dof rx ry rz
   end
   begin
      id 24
      name LeftLeg
      direction 0.000000 -1.000000 0.000000
      length 16.045604
      axis 0.0 0.0 0.0 xyz
      dof rx ry rz
   end
   begin
      id 25
      name LeftFoot
      direction 0.000000 -0.258819 0.965926
      length 5.543155
      axis 15.0 0.0 0.0 xyz
      dof rx ry rz
   end
   begin
      id 26
      name LeftToeBase
      direction 0.000000 0.000000 1.000000
      length 2.952750
      axis 0.0 0.0 0.0 xyz
      dof rx ry rz
   end
   begin
      id 27
      name RightUpLeg
      direction 0.000000 -1.000000 0.000000
      length 19.114733
      axis 0.0 0.0 0.0 xyz
      dof rx ry rz
   end
   begin
      id 28
      name RightLeg
      direction 0.000000 -1.000000 0.000000
      length 16.045604
      axis 0.0 0.0 0.0 xyz
      dof rx ry rz
   end
   begin
      id 29
      name RightFoot
      direction 0.000000 -0.258819 0.965926
      length 5.543155
      axis 15.0 0.0 0.0 xyz
      dof rx ry rz
   end
   begin
      id 30
      name RightToeBase
      direction 0.000000 0.000000 1.000000
      length 2.952750
      axis 0.0 0.0 0.0 xyz
      dof rx ry rz
   end
:hierarchy
   begin
      root Spine_dum LeftUpLeg_dum RightUpLeg_dum
      Spine_dum Spine
      LeftUpLeg_dum LeftUpLeg
      RightUpLeg_dum RightUpLeg
      Spine Spine_dum1 Spine_dum2 Spine_dum3
      Spine_dum1 Head
      Spine_dum2 LeftShoulder
      Spine_dum3 RightShoulder
      LeftShoulder LeftArm
      LeftArm LeftForeArm
      LeftForeArm LeftHand
      LeftHand LeftHand_dum1 LeftHand_dum2
      LeftHand_dum1 LeftHandThumb1
      RightShoulder RightArm
      RightArm RightForeArm
      RightForeArm RightHand
      RightHand RightHand_dum1 RightHand_dum2
      RightHand_dum1 RightHandThumb1
      LeftUpLeg LeftLeg
      LeftLeg LeftFoot
      LeftFoot LeftToeBase
      RightUpLeg RightLeg
      RightLeg RightFoot
      RightFoot RightToeBase
   end

# File created by Blade
# Date/Time:  Tue Jan 27 17:01:38 2015
# Frame Rate: 120.000 fps
#------------------------------------------------------
:FULLY-SPECIFIED
:DEGREES
2536
root -0.998260 36.857387 5.020522 6.379210 7.508852 0.280079
Spine -3.369293 9.824196 -3.580239
Head 3.342858 14.198938 -1.938954
LeftShoulder -3.155507 -7.076470 -4.119442
LeftArm 9.058290 22.071244 -48.560580
LeftForeArm -68.603938 -0.000000 101.654911
LeftHand -12.392133 0.000000 -13.420930
LeftHandThumb1 -26.253704 0.000000 33.147579
RightShoulder -0.457093 -22.267309 -2.772606
RightArm 24.562572 -31.952487 55.272741
RightForeArm -148.060220 -0.000000 33.036855
RightHand -1.655368 -0.000000 -1.920311
RightHandThumb1 -24.326973 -0.000000 -32.862282
LeftUpLeg -5.402143 9.366291 4.291609
LeftLeg 7.443527 -0.000000 -0.000000
LeftFoot -14.547777 0.245590 -20.543898
LeftToeBase 15.169926 -0.000000 -0.000000
RightUpLeg -5.483476 -13.706912 -1.238350
RightLeg 10.924958 -0.000000 -0.000000
RightFoot -17.940269 -7.135118 14.766770
RightToeBase 11.028718 -0.000000 -0.000000
2537
root -1.001336 36.857075 5.022291 6.398027 7.526715 0.275008
Spine -3.406223 9.849305 -3.592385
Head 3.361443 14.185209 -1.908658
LeftShoulder -3.207175 -7.162367 -4.145346
LeftArm 8.529603 20.120466 -49.384767
LeftForeArm -68.527729 -0.000000 101.609365
LeftHand -11.800641 -0.000000 -13.292400
LeftHandThumb1 -26.253704 0.000000 33.147579
RightShoulder -0.462485 -22.274416 -2.766152
RightArm 24.516772 -31.937960 55.288365
RightForeArm -148.096090 -0.000000 32.943674
RightHand -1.643777 -0.000000 -1.969619
RightHandThumb1 -24.326973 -0.000000 -32.862282
LeftUpLeg -5.410278 9.352870 4.303108
LeftLeg 7.416432 -0.000000 -0.000000
LeftFoot -14.534408 0.243897 -20.536246
LeftToeBase 15.147877 -0.000000 -0.000000
RightUpLeg -5.502119 -13.693511 -1.221063
RightLeg 10.930854 -0.000000 -0.000000
RightFoot -17.944231 -7.100365 14.845297
RightToeBase 10.965235 -0.000000 -0.000000
2538
root -1.002722 36.857188 5.025746 6.399011 7.550167 0.286467
Spine -3.418058 9.873544 -3.619749
Head 3.366186 14.177739 -1.871151
LeftShoulder -3.247049 -7.264402 -4.192187
LeftArm 8.000769 18.138509 -50.149683
LeftForeArm -68.436897 -0.000000 101.568457
LeftHand -11.574949 -0.000000 -13.443445
LeftHandThumb1 -26.253704 0.000000 33.147579
RightShoulder -0.455189 -22.265468 -2.758584
RightArm 24.452255 -31.877466 55.343662
RightForeArm -148.142230 -0.000000 32.827696
RightHand -1.612167 -0.000000 -2.087085
RightHandThumb1 -24.326973 -0.000000 -32.862282
LeftUpLeg -5.403320 9.342296 4.294885
LeftLeg 7.404042 -0.000000 -0.000000
LeftFoot -14.522398 0.243598 -20.520917
LeftToeBase 15.145787 -0.000000 -0.000000
RightUpLeg -5.497945 -13.718556 -1.230126
RightLeg 10.938940 -0.000000 -0.000000
RightFoot -17.974561 -7.102297 14.816771
RightToeBase 11.076536 -0.000000 -0.000000
2539
root -1.005905 36.856908 5.027953 6.401904 7.588761 0.291517
Spine -3.426334 9.891288 -3.644314
Head 3.359240 14.167802 -1.831423
LeftShoulder -3.265532 -7.361537 -4.231711
LeftArm 7.467470 16.119220 -50.960328
LeftForeArm -68.341878 -0.000000 101.536124
LeftHand -11.305482 -0.000000 -13.351770
LeftHandThumb1 -26.253704 0.000000 33.147579
RightShoulder -0.475329 -22.273235 -2.730555
RightArm 24.424101 -31.906807 55.293622
RightForeArm -148.135283 -0.000000 32.788574
RightHand -1.615308 -0.000000 -1.978432
RightHandThumb1 -24.326973 -0.000000 -32.862282
LeftUpLeg -5.408759 9.318960 4.298393
LeftLeg 7.401573 -0.000000 -0.000000
LeftFoot -14.509389 0.232912 -20.514625
LeftToeBase 15.126431 -0.000000 -0.000000
RightUpLeg -5.494592 -13.719825 -1.226618
RightLeg 10.942638 -0.000000 -0.000000
RightFoot -17.991407 -7.156694 14.812610
RightToeBase 11.074111 -0.000000 -0.000000
2540
root -1.009789 36.855945 5.031801 6.400624 7.625601 0.290866
Spine -3.440399 9.908858 -3.664387
Head 3.368758 14.152707 -1.785419
LeftShoulder -3.285067 -7.455738 -4.253723
LeftArm 6.949118 14.067419 -51.786631
LeftForeArm -68.344831 0.000000 101.488964
LeftHand -10.884405 -0.000000 -12.817880
LeftHandThumb1 -26.253704 0.000000 33.147579
RightShoulder -0.474764 -22.305311 -2.719882
RightArm 24.425179 -31.923249 55.243330
RightForeArm -148.125456 -0.000000 32.723246
RightHand -1.608412 0.000000 -1.951468
RightHandThumb1 -24.326973 -0.000000 -32.862282
LeftUpLeg -5.404394 9.303438 4.302737
LeftLeg 7.390250 -0.000000 -0.000000
LeftFoot -14.516795 0.242249 -20.517015
LeftToeBase 15.154910 -0.000000 -0.000000
RightUpLeg -5.483546 -13.714805 -1.218652
RightLeg 10.950356 -0.000000 -0.000000
RightFoot -18.001230 -7.206693 14.779266
RightToeBase 11.021616 -0.000000 -0.000000
2541
root -1.013637 36.855464 5.035323 6.403506 7.670972 0.295639
Spine -3.453958 9.922613 -3.691401
Head 3.365351 14.150018 -1.743453
LeftShoulder -3.298285 -7.577199 -4.305367
LeftArm 6.448807 12.021946 -52.574306
LeftForeArm -68.216172 -0.000000 101.447264
LeftHand -10.467442 -0.000000 -12.591679
LeftHandThumb1 -26.253704 0.000000 33.147579
RightShoulder -0.473815 -22.297689 -2.711290
RightArm 24.382196 -31.927929 55.243378
RightForeArm -148.138773 -0.000000 32.660114
RightHand -1.572267 -0.000000 -1.933013
RightHandThumb1 -24.326973 -0.000000 -32.862282
LeftUpLeg -5.410087 9.270939 4.313809
LeftLeg 7.393514 -0.000000 -0.000000
LeftFoot -14.501121 0.205293 -20.533833
LeftToeBase 15.165901 -0.000000 -0.000000
RightUpLeg -5.473593 -13.725659 -1.214252
RightLeg 10.948755 -0.000000 -0.000000
RightFoot -18.017302 -7.238280 14.791530
RightToeBase 11.016337 -0.000000 -0.000000
2542
root -1.016137 36.855683 5.037889 6.414271 7.701995 0.302018
Spine -3.470064 9.870120 -3.706157
Head 3.346019 14.227010 -1.732086
LeftShoulder -3.398201 -7.696645 -4.317760
LeftArm 5.937409 9.981941 -53.392536
LeftForeArm -68.153209 -0.000000 101.420309
LeftHand -10.023612 -0.000000 -12.075123
LeftHandThumb1 -26.253704 0.000000 33.147579
RightShoulder -0.398768 -22.309064 -2.729357
RightArm 24.376680 -31.922501 55.206428
RightForeArm -148.147152 -0.000000 32.596644
RightHand -1.543431 -0.000000 -1.964779
RightHandThumb1 -24.326973 -0.000000 -32.862282
LeftUpLeg -5.422496 9.249469 4.312599
LeftLeg 7.394690 -0.000000 -0.000000
LeftFoot -14.486049 0.199675 -20.527598
LeftToeBase 15.122304 -0.000000 -0.000000
RightUpLeg -5.479779 -13.732253 -1.212423
RightLeg 10.952923 -0.000000 -0.000000
RightFoot -18.034432 -7.218983 14.822063
RightToeBase 11.026760 -0.000000 -0.000000
2543
root -1.019017 36.854916 5.039168 6.407940 7.741735 0.289286
Spine -3.477469 10.015081 -3.713636
Head 3.358931 14.106517 -1.683859
LeftShoulder -3.278279 -7.790265 -4.344622
LeftArm 5.413161 7.976014 -54.200450
LeftForeArm -67.983858 -0.000000 101.391789
LeftHand -9.398304 -0.000000 -11.881932
LeftHandThumb1 -26.253704 0.000000 33.147579
RightShoulder -0.461807 -22.268216 -2.711621
RightArm 24.230032 -31.822700 55.331025
RightForeArm -148.209245 0.000000 32.502036
RightHand -1.509431 -0.000000 -2.134570
RightHandThumb1 -24.326973 -0.000000 -32.862282
LeftUpLeg -5.420726 9.220582 4.334877
LeftLeg 7.389935 -0.000000 -0.000000
LeftFoot -14.498028 0.184709 -20.541311
LeftToeBase 15.202697 -0.000000 -0.000000
RightUpLeg -5.471521 -13.730377 -1.195524
RightLeg 10.960398 -0.000000 -0.000000
RightFoot -18.034401 -7.225963 14.797392
RightToeBase 11.063246 -0.000000 -0.000000
2544
root -1.022216 36.854505 5.042747 6.404623 7.798902 0.294108
Spine -3.484528 10.049800 -3.739022
Head 3.354479 14.084375 -1.638594
LeftShoulder -3.244845 -7.900240 -4.383173
LeftArm 4.892324 5.995349 -54.898645
LeftForeArm -67.881784 -0.000000 101.393076
LeftHand -8.787520 -0.000000 -11.373536
LeftHandThumb1 -26.253704 0.000000 33.147579
RightShoulder -0.495948 -22.307079 -2.668839
RightArm 24.241792 -31.829346 55.242282
RightForeArm -148.202806 -0.000000 32.482585
RightHand -1.536353 0.000000 -1.993750
RightHandThumb1 -24.326973 -0.000000 -32.862282
LeftUpLeg -5.427500 9.200510 4.339550
LeftLeg 7.402124 -0.000000 -0.000000
LeftFoot -14.487657 0.169799 -20.512038
LeftToeBase 15.153901 -0.000000 -0.000000
RightUpLeg -5.459841 -13.765960 -1.191075
RightLeg 10.970222 -0.000000 -0.000000
RightFoot -18.053208 -7.253888 14.781961
RightToeBase 11.067406 -0.000000 -0.000000
2545
root -1.025446 36.854343 5.046559 6.404936 7.840706 0.296890
Spine -3.498163 10.073533 -3.765123
Head 3.339274 14.078718 -1.603568
LeftShoulder -3.252327 -8.001724 -4.383533
LeftArm 4.678329 3.433978 -56.082455
LeftForeArm -67.646398 -0.000000 101.086735
LeftHand -9.681611 -0.000000 -11.978871
LeftHandThumb1 -26.253704 0.000000 33.147579
RightShoulder -0.485866 -22.312541 -2.645075
RightArm 24.217515 -31.760725 55.239819
RightForeArm -148.295212 -0.000000 32.392422
RightHand -1.545989 -0.000000 -2.102304
RightHandThumb1 -24.326973 -0.000000 -32.862282
LeftUpLeg -5.425697 9.182043 4.345636
LeftLeg 7.390771 -0.000000 -0.000000
LeftFoot -14.474406 0.147456 -20.532132
LeftToeBase 15.160326 -0.000000 -0.000000
RightUpLeg -5.446441 -13.761425 -1.186883
RightLeg 10.969232 -0.000000 -0.000000
RightFoot -18.072516 -7.334507 14.802814
RightToeBase 10.970101 -0.000000 -0.000000
2546
root -1.029541 36.853528 5.050417 6.405639 7.894632 0.293817
Spine -3.511650 10.087380 -3.775281
Head 3.336573 14.087809 -1.581124
LeftShoulder -3.228816 -8.093876 -4.508613
LeftArm 4.188099 1.439157 -56.647819
LeftForeArm -67.623352 0.000000 101.155843
LeftHand -9.058996 0.000000 -11.266528
LeftHandThumb1 -26.253704 0.000000 33.147579
RightShoulder -0.472417 -22.302233 -2.649474
RightArm 24.190914 -31.754571 55.243805
RightForeArm -148.260245 -0.000000 32.318402
RightHand -1.564861 -0.000000 -2.122100
RightHandThumb1 -24.326973 -0.000000 -32.862282
LeftUpLeg -5.431040 9.156755 4.354089
LeftLeg 7.391307 -0.000000 -0.000000
LeftFoot -14.476874 0.161876 -20.478158
LeftToeBase 15.163042 -0.000000 -0.000000
RightUpLeg -5.436471 -13.778148 -1.173979
RightLeg 10.970212 -0.000000 -0.000000
RightFoot -18.111431 -7.354036 14.843014
RightToeBase 11.037656 -0.000000 -0.000000
2547
root -1.033751 36.853834 5.053783 6.409521 7.946045 0.298003
Spine -3.528131 10.094044 -3.799003
Head 3.350472 14.121303 -1.539139
LeftShoulder -3.217732 -8.154329 -4.646822
LeftArm 3.761693 -0.503112 -57.128143
LeftForeArm -67.873703 -0.000000 101.182748
LeftHand -8.229452 0.000000 -10.530969
LeftHandThumb1 -26.253704 0.000000 33.147579
RightShoulder -0.464998 -22.312077 -2.640402
RightArm 24.226366 -31.783636 55.174445
RightForeArm -148.232984 -0.000000 32.250605
RightHand -1.556858 0.000000 -2.050018
RightHandThumb1 -24.326973 -0.000000 -32.862282
LeftUpLeg -5.438251 9.120635 4.366100
LeftLeg 7.390074 -0.000000 -0.000000
LeftFoot -14.456787 0.126761 -20.500944
LeftToeBase 15.167084 -0.000000 -0.000000
RightUpLeg -5.429316 -13.788862 -1.165330
RightLeg 10.967930 -0.000000 -0.000000
RightFoot -18.124546 -7.373451 14.850315
RightToeBase 11.023062 -0.000000 -0.000000
2548
root -1.037340 36.852629 5.057402 6.415014 8.007025 0.302610
Spine -3.550278 10.106320 -3.822278
Head 3.354481 14.133520 -1.495618
LeftShoulder -3.175208 -8.188319 -4.765547
LeftArm 3.335234 -2.422214 -57.621281
LeftForeArm -67.977502 0.000000 101.214104
LeftHand -7.216669 0.000000 -9.783369
LeftHandThumb1 -26.253704 0.000000 33.147579
RightShoulder -0.463253 -22.314784 -2.632263
RightArm 24.221493 -31.801270 55.125983
RightForeArm -148.219203 0.000000 32.224491
RightHand -1.573880 -0.000000 -1.977658
RightHandThumb1 -24.326973 -0.000000 -32.862282
LeftUpLeg -5.450407 9.094997 4.372358
LeftLeg 7.392215 -0.000000 -0.000000
LeftFoot -14.452973 0.084302 -20.523603
LeftToeBase 15.186953 -0.000000 -0.000000
RightUpLeg -5.423701 -13.814359 -1.159104
RightLeg 10.972117 -0.000000 -0.000000
RightFoot -18.152465 -7.385602 14.869601
RightToeBase 11.027394 -0.000000 -0.000000
